<?xml version="1.0" encoding="UTF-8"?>
<svg id="Capa_2" data-name="Capa 2" xmlns="http://www.w3.org/2000/svg" viewBox="0 0 247.36 42.41">
  <defs>
    <style>
      .cls-1 {
        fill: #e12120;
      }

      .cls-1, .cls-2, .cls-3, .cls-4, .cls-5, .cls-6 {
        stroke-width: 0px;
      }

      .cls-2 {
        fill: #005388;
      }

      .cls-3 {
        fill: #0a8db9;
      }

      .cls-4 {
        fill: #e44a2f;
      }

      .cls-5 {
        fill: #00b1d5;
      }

      .cls-6 {
        fill: #ec7e1e;
      }
    </style>
  </defs>
  <g id="Capa_1-2" data-name="Capa 1">
    <g>
      <g>
        <g>
          <path class="cls-2" d="m24.69,33.01c0,5.11,4.46,9.28,9.97,9.34.04,0,.09.01.13.01,5.55,0,10.08-4.21,10.08-9.35s-4.52-9.32-10.08-9.32h-.13c-5.5.07-9.97,4.26-9.97,9.32Zm5.97-4.09c1.02-1.06,2.5-1.56,4-1.56,2.1,0,4.23,1.02,5.23,2.98l.18.37c1.15,3.27-4.27,4.12-3.51.9.29-.94-.13-1.43-.89-1.7l-1.01-.42-.17-.05c-.27-.08-.34,0-.41.19-.26.68-.83,1.18-1.33,1.8-1.22,1.55-1.45,2.87.41,4.16.48.3.98.48,1.49.59,1.93.37,3.9-.59,5.79-2.35-.22,2.58-2.69,4.74-5.79,4.67-.78,0-1.58-.16-2.41-.48-4.94-2.2-3.68-7-1.59-9.1Z"/>
          <g>
            <path class="cls-5" d="m47.63,22.86c.63.13.74-.7,1.14-.92.39-.2.76-.07,1-.32.21-.26.28-.89-.21-1.74-.96-1.65.85-1.56.85-1.56,0,0,4.61.12,4.85.16.27.05,1.35.02,2.2-1.15.86-1.16,2.19-1.68,2.19-1.68,1.52-.57,3.15-.88,4.8-.47.35.07.65.24.9.43l-.85-1.19-3.21-4.25s-1.56-1.77-3.18-1.61c-1.64.17-3.03.99-4.21,2.01,0,0-1.04.9-1.46,2.24-.38,1.34-1.33,1.71-1.6,1.75-.24.06-4.47,1.47-4.47,1.47,0,0-1.68.5-.25,1.7.71.58.84,1.21.74,1.5-.13.3-.51.3-.8.6-.28.34-.09,1.12-.71,1.22-.63.08-.74.58-.57,1.06.19.45.19.99-.43,1.46-1.15.81.47,3.1.56,3.22-.04-.8.12-1.62.82-1.85.8-.21.98-.74.97-1.26-.01-.52.28-.96.89-.84Z"/>
            <path class="cls-4" d="m36.44,14.24c.91.19,1.33.65,1.36.96.04.33-.29.49-.4.91-.08.43.46,1.04-.05,1.41-.47.36-.34.87.04,1.19.39.33.64.77.31,1.49-.59,1.25,1.9,2.48,2.05,2.56-.41-.68-.69-1.49-.15-2.01.57-.6.49-1.13.2-1.59-.26-.45-.2-.98.43-1.16.6-.21.3-.97.53-1.35.24-.38.64-.43.72-.76.06-.32-.19-.92-1.02-1.44-1.63-.98,0-1.77,0-1.77,0,0,4.09-2.12,4.35-2.2.24-.09,1.17-.64,1.37-2.06.19-1.44,1.12-2.52,1.12-2.52,1.04-1.23,2.33-2.3,3.97-2.73.33-.09.69-.1,1-.05l-1.33-.66-4.83-2.16s-2.23-.82-3.59.13c-1.35.91-2.16,2.32-2.71,3.8,0,0-.47,1.27-.19,2.63.31,1.36-.35,2.16-.55,2.32-.21.15-3.19,3.42-3.19,3.42,0,0-1.24,1.25.57,1.61Z"/>
            <path class="cls-6" d="m69.4,25.35s-.34-2.34-1.76-3.1c-1.46-.75-3.08-.81-4.63-.61,0,0-1.35.16-2.43,1.07-1.06.88-2.08.68-2.32.58-.23-.11-4.53-1.21-4.53-1.21,0,0-1.68-.52-1.14,1.26.29.87.06,1.46-.21,1.64-.26.21-.59-.03-.99.1-.42.12-.71.88-1.27.6-.57-.25-.96.1-1.05.59-.11.49-.37.92-1.19,1-.59.01-.92.54-1.08,1.15l22.82-.02-.22-3.06Z"/>
          </g>
          <g>
            <path class="cls-1" d="m9.73,15.66s1.31.52,2.19,1.68c.85,1.18,1.93,1.2,2.19,1.15.27-.05,4.87-.16,4.87-.16,0,0,1.81-.1.83,1.56-.49.85-.39,1.48-.18,1.74.23.25.58.12.98.32.4.22.49,1.05,1.11.92.64-.12.93.32.93.84-.02.52.15,1.05.94,1.26.72.23.87,1.05.82,1.85.11-.12,1.7-2.41.57-3.22-.63-.47-.63-1.01-.43-1.46.17-.48.05-.99-.56-1.06-.6-.1-.43-.88-.71-1.22-.3-.31-.65-.31-.78-.6-.13-.3.01-.92.73-1.5,1.43-1.2-.24-1.7-.24-1.7,0,0-4.22-1.41-4.47-1.47-.25-.03-1.23-.41-1.63-1.75-.39-1.34-1.42-2.24-1.42-2.24-1.18-1.02-2.57-1.84-4.2-2.01-1.63-.17-3.2,1.61-3.2,1.61l-3.19,4.25-.84,1.19c.26-.18.55-.36.89-.43,1.65-.41,3.3-.1,4.8.47Z"/>
            <path class="cls-3" d="m18.14,3.19c1.64.43,2.91,1.5,3.98,2.73,0,0,.91,1.08,1.1,2.52.19,1.42,1.12,1.97,1.37,2.06.25.08,4.33,2.2,4.33,2.2,0,0,1.64.79,0,1.77-.82.51-1.07,1.11-1,1.44.08.33.46.38.71.76.25.39-.08,1.15.54,1.35.62.18.65.72.39,1.16-.26.46-.35.99.23,1.59.53.51.25,1.32-.16,2.01.14-.09,2.66-1.32,2.05-2.56-.34-.72-.07-1.16.3-1.49.42-.33.54-.83.03-1.19-.48-.37.05-.98-.04-1.41-.09-.42-.44-.59-.37-.91.02-.31.44-.77,1.35-.96,1.82-.36.57-1.61.57-1.61,0,0-3.02-3.27-3.2-3.42-.19-.16-.85-.96-.56-2.32.28-1.36-.18-2.63-.18-2.63-.55-1.48-1.38-2.89-2.72-3.8-1.34-.94-3.57-.13-3.57-.13l-4.82,2.16-1.34.66c.33-.05.66-.04,1.02.05Z"/>
            <path class="cls-2" d="m21.7,27.28c-.8-.08-1.07-.51-1.17-1-.12-.49-.48-.84-1.05-.59-.57.27-.83-.48-1.27-.6-.42-.13-.72.11-1-.1-.25-.18-.47-.77-.2-1.64.54-1.79-1.14-1.26-1.14-1.26,0,0-4.31,1.1-4.53,1.21-.23.1-1.25.3-2.32-.58-1.06-.91-2.41-1.07-2.41-1.07-1.55-.2-3.16-.14-4.62.61-1.45.76-1.8,3.1-1.8,3.1l-.18,3.02,22.78.05c-.14-.61-.5-1.14-1.08-1.15Z"/>
          </g>
        </g>
        <g>
          <g>
            <path class="cls-2" d="m79.66,15.37c.45.83,1.29,1.54,2.41,2.12.84.42,2.01.61,3.59.61,1.79,0,3.26-.39,4.31-1.19,1.05-.75,1.75-1.6,2.02-2.54.25-.89.43-2.38.43-4.45V3.18c0-.69.01-1.19.13-1.48.15-.41.39-.72.76-.91.32-.24.71-.33,1.2-.33h.35v-.47h-6.08v.47c.71,0,1.25.08,1.64.33.26.1.47.37.63.69.14.33.24.9.24,1.7v7.23c0,1.86-.19,3.17-.5,3.95-.37.75-.85,1.32-1.49,1.75-.71.45-1.51.68-2.43.68-.86,0-1.57-.2-2.08-.53-.58-.34-.96-.78-1.17-1.27-.27-.53-.4-1.58-.4-3.16V3.18c0-.99.08-1.63.18-1.89.08-.26.3-.44.52-.61.23-.14.75-.22,1.44-.22h.46v-.47h-9.11v.47c.75,0,1.26.08,1.51.22.29.17.51.35.57.61.12.26.21.89.21,1.89v8.65c0,1.49.22,2.63.68,3.54Z"/>
            <path class="cls-2" d="m104.01,4.61c.79-.02,1.3.19,1.64.52.26.28.35.84.35,1.69v5.79l-6.7-8.35h-4.79v.34c.42,0,.73.04.95.19.21.11.46.33.75.71l.29.34v9.57c0,.73-.14,1.26-.4,1.56-.34.27-.85.43-1.59.43v.38h4.79v-.38h-.32c-.45,0-.87-.14-1.21-.41-.4-.28-.57-.78-.57-1.58V6.82l9.16,11.28h.38V6.82c0-.64.06-1.09.17-1.41.15-.22.24-.45.45-.5.22-.11.63-.26,1.2-.3v-.34h-4.53v.34Z"/>
            <path class="cls-2" d="m116.1,5.58c.07-.19.24-.35.4-.44.24-.16.56-.2.92-.2h.46v-.34h-7.09v.34h.43c.39,0,.71.04.91.2.27.11.38.25.48.44.02.16.11.59.11,1.3v8.9c0,.7-.08,1.11-.11,1.26-.1.26-.2.44-.43.52-.23.1-.56.18-.96.18h-.43v.38h7.09v-.38h-.46c-.36,0-.66-.08-.87-.18-.22-.14-.39-.31-.46-.47-.08-.2-.14-.61-.14-1.31V6.88c0-.7.07-1.14.14-1.29Z"/>
            <path class="cls-2" d="m132.32,5.37c.4-.45.83-.72,1.35-.77v-.34h-4.47v.34c.43,0,.85.03,1.13.19.21.02.37.16.48.33.1.13.18.28.18.52,0,.2-.05.4-.13.62-.09.25-.3.7-.63,1.46l-2.66,6.02-2.86-6.77c-.33-.69-.55-1.13-.6-1.31,0-.14-.09-.29-.09-.42,0-.19.09-.33.26-.44.21-.16.62-.2,1.2-.2h.25v-.34h-6.51v.34c.52.04.83.2,1.04.42.18.22.58.97,1.1,2.29l4.67,10.79h.33l4.72-10.38c.52-1.23.95-2,1.21-2.36Z"/>
            <path class="cls-2" d="m136.75,17.03c-.1.26-.2.44-.37.52-.24.1-.57.18-.93.18h-.47v.38h11.71l.59-4.33h-.35c-.34,1.25-.88,2.12-1.7,2.7-.7.56-1.69.9-3.01.9h-.78c-.39,0-.65-.07-.87-.2-.16-.09-.28-.22-.36-.38-.03-.18-.07-.65-.07-1.37v-3.85c.65,0,1.17.09,1.45.26.36.18.68.51.95,1.01.26.52.43,1.13.48,1.89h.34v-7.1h-.34c-.12,1.08-.38,1.84-.75,2.43-.41.53-.97.77-1.86.77h-.28v-5.49h1.41c1.02,0,1.72.04,2.09.16.68.19,1.16.48,1.49.94.37.42.61,1.14.79,2.09h.41v-3.94h-11.35v.34h.47c.45,0,.79.1,1.02.27.17.15.29.31.37.53.03.16.03.52.03,1.14v8.9c0,.7-.03,1.11-.11,1.26Z"/>
            <path class="cls-2" d="m155.23,11.92l1.16,1.66,3.2,4.52h4.23v-.38c-.34,0-.67-.14-.91-.31-.2-.17-.48-.53-.92-1.13l-3.24-4.55c.81-.23,1.48-.53,1.95-.96.68-.64,1-1.48,1-2.46,0-.84-.22-1.58-.67-2.14-.46-.62-1.05-1.03-1.83-1.26-.65-.19-1.56-.3-2.81-.32h-7.11v.34c.62,0,1.07.03,1.24.19.23.11.41.24.51.43.08.19.11.68.11,1.37v8.82c0,.71-.03,1.17-.11,1.37-.1.2-.28.35-.51.45-.17.09-.62.17-1.24.17v.38h6.91v-.38c-.55,0-1.01-.08-1.23-.17-.19-.09-.41-.25-.5-.45-.09-.2-.14-.66-.14-1.37v-3.82h.9Zm-.9-6.64h1.1c.34,0,.68,0,.97.11.61.06,1.02.31,1.33.6.48.55.76,1.28.76,2.35,0,.69-.14,1.26-.44,1.73-.21.42-.58.74-1.05.89-.17.07-.38.12-.61.15-.39.06-.86.13-1.5.13h-.57v-5.96Z"/>
            <path class="cls-2" d="m174.93,13.97c0-.91-.26-1.71-.85-2.38-.5-.71-1.56-1.45-3.17-2.2-1.14-.58-1.88-.99-2.2-1.2-.44-.28-.75-.59-.89-.93-.14-.23-.23-.48-.23-.83,0-.46.23-.86.58-1.21.4-.41.96-.57,1.66-.57.86,0,1.66.38,2.41,1.02.75.74,1.21,1.62,1.42,2.79h.41l-.11-4.53h-.3c-.09.41-.21.67-.27.78-.08.11-.21.11-.43.11-.16,0-.45-.08-.91-.33-.47-.2-.83-.31-1.16-.43-.43-.1-.85-.13-1.28-.13-1.25,0-2.24.36-3.03,1.14-.8.78-1.19,1.68-1.19,2.75,0,.64.17,1.19.44,1.76.32.5.71.98,1.27,1.41.52.44,1.4.94,2.65,1.56.88.44,1.49.78,1.83,1.05.36.3.6.53.81.88.18.29.26.59.26.92,0,.51-.26.99-.68,1.4-.43.44-1.05.62-1.8.62-.93,0-1.88-.41-2.7-1.15-.83-.75-1.42-1.84-1.7-3.28h-.37v5.13h.37c.14-.27.28-.51.45-.61.21-.17.43-.23.57-.23.25,0,.45.06.8.23.58.22,1.07.37,1.44.49.34.1.81.12,1.21.12,1.36,0,2.48-.43,3.37-1.22.87-.82,1.32-1.79,1.32-2.92Z"/>
            <path class="cls-2" d="m182.14,5.58c.08-.19.25-.35.4-.44.27-.16.6-.2.98-.2h.42v-.34h-7.11v.34h.47c.38,0,.7.04.93.2.22.11.33.25.45.44.04.16.1.59.1,1.3v8.9c0,.7-.06,1.11-.1,1.26-.12.26-.23.44-.42.52-.23.1-.52.18-.96.18h-.47v.38h7.11v-.38h-.42c-.39,0-.72-.08-.9-.18-.23-.14-.4-.31-.48-.47-.08-.2-.11-.61-.11-1.31V6.88c0-.7.03-1.14.11-1.29Z"/>
            <path class="cls-2" d="m187.91,17.03c-.1.21-.24.44-.5.53-.17.09-.5.17-.86.17h-.47v.38h6.1c.59,0,1.12-.03,1.53-.06.11-.04.23-.04.4-.06.86-.17,1.65-.43,2.3-.75.64-.33,1.21-.75,1.65-1.25.52-.54.94-1.18,1.21-2,.33-.77.46-1.66.46-2.65,0-1.33-.28-2.61-.9-3.7-.68-1.06-1.55-1.9-2.75-2.41-.63-.3-1.47-.49-2.36-.58-.51-.06-1.01-.06-1.53-.06h-6.1v.34h.47c.36,0,.69.04.86.2.26.11.4.25.48.44.04.16.12.59.12,1.3v8.9c0,.7-.03,1.11-.11,1.26Zm3.33-11.75c1.1,0,1.91.15,2.42.3q.01.06.06.06c.61.33,1.17.86,1.62,1.63.52,1.07.81,2.44.81,4.19,0,2.13-.41,3.74-1.2,4.76-.34.47-.76.74-1.23.92-.41.17-.83.23-1.32.23-.35,0-.6-.07-.82-.16-.07-.07-.17-.18-.22-.3-.06-.11-.12-.46-.12-1.02V5.28Z"/>
            <path class="cls-2" d="m212.36,15.38l-4.88-11.13h-.2l-1.25,2.78-3.63,8.1c-.46.98-.83,1.67-1.14,2.01-.32.32-.71.51-1.22.59v.38h4.56v-.38c-.73-.03-1.19-.14-1.39-.23-.3-.19-.39-.47-.39-.88,0-.23.04-.63.26-1.05l.54-1.31h4.84l.67,1.67c.23.47.31.7.34.77.03.17.06.23.06.35,0,.21-.08.38-.22.47-.23.15-.57.23-1.11.23h-.26v.38h6.54v-.38c-.4-.03-.72-.14-.94-.35-.31-.26-.68-.93-1.16-2Zm-6.33-1.87h-2.04l2.04-4.6.05-.08,2.01,4.68h-2.07Z"/>
            <path class="cls-2" d="m218.17,16.71c-.13.27-.34.53-.59.66-.26.18-.69.24-1.19.24h-.6v.49h8.02c.84,0,1.54-.03,2.05-.08.17-.04.34-.07.48-.1,1.23-.2,2.25-.51,3.09-.94.89-.43,1.62-.99,2.22-1.67.67-.72,1.18-1.58,1.59-2.62.41-1.04.58-2.24.58-3.5,0-1.81-.39-3.46-1.19-4.92-.85-1.39-2.01-2.49-3.66-3.21-.85-.39-1.9-.68-3.12-.77-.66-.09-1.32-.13-2.05-.13h-8.02v.5h.6c.5,0,.91.09,1.19.27.32.18.51.35.57.59.14.25.17.78.17,1.72v11.79c0,.92-.03,1.48-.14,1.66Zm4.44-15.52c1.5,0,2.57.13,3.18.39,0,.04.06.04.06.04.82.41,1.55,1.13,2.12,2.17.74,1.35,1.11,3.2,1.11,5.52,0,2.85-.54,4.98-1.59,6.28-.45.6-.99.99-1.64,1.26-.51.17-1.11.26-1.74.26-.41,0-.81-.03-1.02-.2-.19-.03-.29-.2-.39-.36-.04-.17-.09-.64-.09-1.36V1.19Z"/>
          </g>
          <g>
            <path class="cls-2" d="m90.8,39.32c-.45.7-.99,1.21-1.56,1.55-.67.32-1.38.45-2.31.45h-1.44c-.81,0-1.32,0-1.54-.1-.29-.09-.48-.27-.61-.51-.05-.27-.11-.82-.11-1.71v-10.91c0-.89.06-1.44.11-1.64.13-.29.28-.46.48-.61.34-.18.75-.23,1.25-.23h.76v-.48h-9.15v.48h.53c.48,0,.88.04,1.17.23.27.19.43.35.56.55.06.23.14.78.14,1.7v11.26c0,.91-.08,1.41-.14,1.6-.13.33-.28.49-.53.63-.3.18-.72.23-1.2.23h-.53v.49h15.22l.68-6.02h-.53c-.4,1.35-.79,2.36-1.25,3.04Z"/>
            <path class="cls-2" d="m104.69,39.67l-4.73-10.78h-.17l-1.22,2.67-3.49,7.8c-.44,1.01-.81,1.63-1.13,1.99-.32.33-.68.48-1.16.57v.36h4.36v-.36c-.68-.03-1.1-.13-1.33-.2-.24-.23-.37-.46-.37-.83,0-.27.06-.63.26-1.06l.53-1.27h4.65l.7,1.64c.15.43.3.66.3.73.04.07.04.25.04.37,0,.18-.04.3-.19.43-.24.11-.54.2-1.07.2h-.25v.36h6.33v-.36c-.39,0-.7-.13-.93-.33-.31-.29-.65-.9-1.11-1.93Zm-6.12-1.81h-1.99l1.99-4.44.06-.09,1.93,4.52h-1.98Z"/>
            <path class="cls-2" d="m127.29,25.07c-.17.24-.43.32-.67.32-.21,0-.75-.17-1.52-.46-1.36-.52-2.67-.78-3.87-.78-1.68,0-3.23.41-4.72,1.21-1.52.79-2.63,2.01-3.5,3.49-.86,1.49-1.29,3.07-1.29,4.7s.35,3.04,1.18,4.46c.75,1.39,1.89,2.46,3.27,3.2,1.47.75,3.15,1.1,4.98,1.1,1.39,0,2.66-.19,3.75-.65.96-.45,1.98-1.21,3.03-2.22v-1.52c-1.05,1.19-2.01,2.02-2.92,2.51-.9.46-1.92.71-3,.71-1.34,0-2.42-.35-3.24-1.01-.87-.61-1.47-1.63-1.82-2.87-.44-1.28-.61-2.7-.61-4.28s.22-3.04.78-4.28c.45-1.03,1.08-1.83,1.99-2.43.93-.64,1.93-.94,2.98-.94,1.28,0,2.48.41,3.47,1.22,1.06.85,1.74,2.03,2.1,3.64h.52v-6.03h-.52c-.06.46-.17.78-.37.93Z"/>
            <path class="cls-2" d="m136.76,28.71h-.08c-1.93-.11-3.58.52-4.9,1.84-1.34,1.28-2,2.89-2,4.87,0,1.73.53,3.2,1.58,4.49,1.26,1.6,3.05,2.38,5.4,2.38h.06c2.38,0,4.18-.83,5.45-2.5.96-1.27,1.47-2.77,1.47-4.41,0-1.94-.64-3.56-1.95-4.83-1.31-1.32-2.98-1.93-5.02-1.84Zm3,10.4c-.32.88-.74,1.54-1.32,2-.45.32-.99.43-1.68.43-.98,0-1.75-.36-2.29-1.1-.81-1.07-1.15-2.72-1.15-4.96,0-1.85.23-3.3.74-4.34.6-1.22,1.51-1.78,2.69-1.81h.06c.64,0,1.17.13,1.67.53.52.33.91.98,1.27,1.79.35.83.48,2.17.48,3.89,0,1.47-.14,2.65-.48,3.56Z"/>
            <path class="cls-2" d="m153.91,29.23c.75,0,1.27.17,1.61.55.19.27.3.8.3,1.59v5.63l-6.45-8.1h-4.71v.33c.42,0,.74.11.97.17.2.13.44.38.74.71l.27.36v9.26c0,.7-.14,1.19-.44,1.46-.26.32-.8.45-1.53.45v.36h4.71v-.36h-.34c-.44,0-.84-.13-1.19-.43-.31-.2-.48-.76-.48-1.48v-8.35l8.85,10.92h.36v-10.92c0-.63.05-1.02.13-1.32.13-.24.23-.45.47-.52.14-.13.52-.2,1.07-.3v-.33h-4.33v.33Z"/>
            <path class="cls-2" d="m171.23,29.34c-.13.09-.32.2-.51.2-.17,0-.5-.13-1.14-.37-1.01-.36-2.04-.56-2.95-.56-1.25,0-2.38.3-3.49.93-1.1.58-2.01,1.48-2.67,2.61-.64,1.05-.95,2.31-.95,3.52s.28,2.32.85,3.37c.62,1.05,1.46,1.85,2.53,2.42,1.08.54,2.32.83,3.73.83,1.05,0,1.96-.17,2.77-.55.8-.29,1.52-.85,2.27-1.64v-1.12c-.78.89-1.47,1.53-2.18,1.88-.64.32-1.44.53-2.24.53-.99,0-1.84-.26-2.42-.75-.63-.51-1.09-1.21-1.37-2.19-.32-.95-.49-1.99-.49-3.2s.23-2.29.63-3.27c.29-.72.83-1.37,1.47-1.8.65-.47,1.41-.74,2.24-.74.99,0,1.89.35,2.61.96.78.65,1.3,1.58,1.6,2.74h.39v-4.54h-.39c-.03.31-.17.56-.31.74Z"/>
            <path class="cls-2" d="m180.76,28.71h-.13c-1.88-.11-3.51.52-4.86,1.84-1.36,1.28-1.98,2.89-1.98,4.87,0,1.73.52,3.2,1.56,4.49,1.23,1.6,3.04,2.38,5.41,2.38h.02c2.36,0,4.18-.83,5.49-2.5.93-1.27,1.42-2.77,1.42-4.41,0-1.94-.64-3.56-1.92-4.83-1.33-1.32-2.99-1.93-5.01-1.84Zm2.96,10.4c-.3.88-.75,1.54-1.32,2-.42.32-.99.43-1.65.43-1,0-1.78-.36-2.32-1.1-.76-1.07-1.19-2.72-1.19-4.96,0-1.85.28-3.3.8-4.34.61-1.22,1.5-1.78,2.71-1.81h.02c.63,0,1.23.13,1.71.53.54.33.91.98,1.23,1.79.36.83.47,2.17.47,3.89,0,1.47-.11,2.65-.47,3.56Z"/>
            <path class="cls-2" d="m201.08,40.53l-3.14-4.45c.82-.2,1.4-.48,1.87-.92.69-.63,1.05-1.42,1.05-2.4,0-.77-.23-1.47-.71-2.04-.45-.57-1.07-1.03-1.81-1.25-.61-.15-1.48-.28-2.68-.29h-6.9v.33c.63,0,1.02.05,1.23.17.2.13.37.24.48.47.06.16.12.6.12,1.32v8.49c0,.72-.06,1.19-.12,1.34-.11.17-.28.33-.45.49-.24.1-.63.13-1.26.13v.36h6.73v-.36c-.61,0-1.01-.03-1.24-.13-.2-.11-.38-.32-.49-.49-.05-.15-.1-.61-.1-1.34v-3.67h.87l1.13,1.63,3.09,4.36h4.11v-.36c-.3,0-.6-.13-.94-.33-.11-.12-.44-.49-.86-1.07Zm-3.77-6.04c-.3.47-.64.74-1.08.9-.18.05-.33.08-.56.15-.39.07-.88.11-1.45.11h-.56v-5.78h1.04c.39,0,.68.03.96.06.56.14,1,.31,1.32.68.43.47.69,1.22.69,2.17,0,.7-.13,1.27-.36,1.7Z"/>
            <path class="cls-2" d="m212.64,29.82c-.61-.3-1.4-.46-2.31-.6-.48-.03-.97-.03-1.48-.03h-5.87v.33h.43c.34,0,.7.11.85.17.23.17.37.3.45.48.06.15.08.59.08,1.23v8.61c0,.7-.02,1.14-.05,1.25-.11.22-.26.37-.49.48-.15.15-.46.18-.85.18h-.43v.36h5.87c.66,0,1.11-.02,1.48-.06.11-.03.3-.03.38-.04.88-.18,1.63-.39,2.26-.7.62-.29,1.16-.74,1.64-1.24.42-.51.81-1.15,1.15-1.93.3-.76.44-1.64.44-2.53,0-1.34-.3-2.53-.9-3.58-.62-1.06-1.47-1.85-2.67-2.37Zm-1.06,10.66c-.37.41-.74.7-1.25.87-.36.12-.78.21-1.25.21-.33,0-.6-.06-.77-.14-.12-.07-.23-.12-.26-.27-.06-.16-.11-.46-.11-.99v-10.27c1.12,0,1.87.1,2.35.3t.03.01c.62.3,1.14.82,1.59,1.62.51.95.78,2.29.78,4.01,0,2.08-.41,3.65-1.11,4.64Z"/>
            <path class="cls-2" d="m217.42,29.52h.44c.39,0,.64.11.85.17.24.17.39.3.44.48.09.15.11.59.11,1.23v8.61c0,.7-.02,1.09-.11,1.25-.06.22-.2.37-.39.48-.21.09-.51.18-.9.18h-.44v.36h6.83v-.36h-.42c-.38,0-.64-.03-.88-.18-.21-.15-.35-.27-.44-.45-.05-.14-.08-.58-.08-1.28v-8.61c0-.65.03-1.06.08-1.2.08-.21.23-.38.4-.48.23-.09.54-.2.92-.2h.42v-.33h-6.83v.33Z"/>
            <path class="cls-2" d="m240.61,38.81l-6.27-14.19h-.16l-1.65,3.54-4.58,10.28c-.56,1.35-1.09,2.22-1.5,2.56-.39.48-.92.75-1.51.8v.49h5.72v-.49c-.88-.05-1.43-.16-1.69-.32-.36-.18-.57-.55-.57-1.06,0-.34.15-.79.41-1.35l.68-1.7h6.11l.91,2.14c.24.57.38.88.38.97.09.18.12.33.12.45,0,.27-.12.47-.34.57-.23.25-.71.3-1.39.3h-.34v.49h8.39v-.49c-.52,0-.93-.16-1.25-.44-.38-.36-.84-1.19-1.47-2.55Zm-5.43-2.38h-5.2l2.56-5.88.08-.08"/>
          </g>
        </g>
      </g>
      <path id="_8" data-name="8" class="cls-2" d="m245.9,39.5c-.81,0-1.46.65-1.46,1.46s.65,1.46,1.46,1.46,1.46-.65,1.46-1.46-.65-1.46-1.46-1.46Zm0,2.68c-.67,0-1.22-.55-1.22-1.22,0-.67.55-1.22,1.22-1.22.67,0,1.22.55,1.22,1.22,0,.68-.55,1.22-1.22,1.22Zm.4-1.04s-.1-.09-.16-.13c.13-.02.23-.07.3-.14.07-.07.1-.17.1-.28,0-.09-.02-.17-.07-.24-.05-.07-.1-.12-.18-.15-.07-.03-.19-.04-.35-.04h-.65v1.52h.31v-.64h.06c.07,0,.12,0,.15.02.03.01.06.03.09.06.03.03.08.11.16.22l.22.33h.37l-.18-.3c-.07-.12-.13-.2-.18-.25Zm-.47-.33h-.23v-.39h.24c.13,0,.2,0,.22,0,.05,0,.09.03.12.06.03.03.04.07.04.12,0,.04-.01.08-.03.11-.02.03-.05.05-.09.06-.04.01-.13.02-.28.02Z"/>
    </g>
  </g>
</svg>